<?xml version="1.0" encoding="UTF-8"?>
<svg id="Layer_1" xmlns="http://www.w3.org/2000/svg" version="1.1" viewBox="0 0 316 169">
  <!-- Generator: Adobe Illustrator 29.1.0, SVG Export Plug-In . SVG Version: 2.1.0 Build 142)  -->
  <defs>
    <style>
      .st0 {
        fill: #93542b;
      }

      .st1 {
        fill: #754e15;
      }

      .st2, .st3, .st4 {
        fill: #24413e;
      }

      .st3 {
        font-family: InterFaceTrial-XBold, 'InterFace Trial';
        font-size: 39.48px;
        font-weight: 700;
      }

      .st5 {
        fill: #b38b32;
      }

      .st6 {
        fill: #a16a2e;
      }

      .st4 {
        font-family: Nexa-ExtraLight, Nexa;
        font-size: 31.45px;
        font-weight: 200;
        letter-spacing: .23em;
      }

      .st7 {
        fill: #5e5f38;
      }
    </style>
  </defs>
  <g>
    <path class="st0" d="M32.25,66.35c-6.3,0-12.34,2.5-16.79,6.96-4.45,4.45-6.96,10.49-6.96,16.79s2.5,12.34,6.96,16.79c4.45,4.45,10.49,6.96,16.79,6.96v-47.5Z"/>
    <path class="st2" d="M56,89.41c6.3,0,12.34-2.5,16.79-6.96,4.45-4.45,6.96-10.49,6.96-16.79s-2.5-12.34-6.96-16.79c-4.45-4.45-10.49-6.96-16.79-6.96v47.5Z"/>
    <path class="st5" d="M32.25,65.66v.69s.02,0,.03,0c0-.23-.03-.46-.03-.69Z"/>
    <path class="st5" d="M56,41.91h-23.75v23.75c0-6.3,2.5-12.34,6.96-16.79,4.45-4.45,10.49-6.96,16.79-6.96Z"/>
    <path class="st5" d="M32.25,113.84h23.75v-23.75c0,6.3-2.5,12.34-6.96,16.79-4.45,4.45-10.49,6.96-16.79,6.96Z"/>
    <path class="st5" d="M56,90.09v-.69s-.02,0-.03,0c0,.23.03.46.03.69Z"/>
    <path class="st7" d="M39.21,48.87c-4.45,4.45-6.96,10.49-6.96,16.79,0,.23.03.46.03.69,6.29,0,12.31,2.51,16.76,6.95s6.75,10.06,6.92,16.1c.01,0,.02,0,.03,0v-47.5c-6.3,0-12.34,2.5-16.79,6.96Z"/>
    <path class="st6" d="M39.21,82.45c-4.29-4.29-6.75-10.06-6.92-16.1-.01,0-.02,0-.03,0v47.5c6.3,0,12.34-2.5,16.79-6.96,4.45-4.45,6.96-10.49,6.96-16.79,0-.23-.03-.46-.03-.69-6.29,0-12.31-2.51-16.76-6.95Z"/>
    <path class="st1" d="M55.97,89.41c-.18-6.05-2.63-11.81-6.92-16.1s-10.47-6.94-16.76-6.95c.18,6.05,2.63,11.81,6.92,16.1,4.45,4.45,10.47,6.94,16.76,6.95Z"/>
  </g>
  <text class="st3" transform="translate(91.04 78.05)"><tspan x="0" y="0">Dual Palette</tspan></text>
  <text class="st4" transform="translate(68.65 117.71)"><tspan x="0" y="0">VISION</tspan></text>
</svg>