<svg version="1.1" id="Layer_1" xmlns="http://www.w3.org/2000/svg" xmlns:xlink="http://www.w3.org/1999/xlink" x="0px" y="0px"
	 width="100%" viewBox="0 0 1042 417" enable-background="new 0 0 1042 417" xml:space="preserve">
<path fill="#FFFFFF" opacity="1.000000" stroke="none" 
	d="
M650.000000,418.000000 
	C433.333344,418.000000 217.166672,418.000000 1.000000,418.000000 
	C1.000000,279.000000 1.000000,140.000000 1.000000,1.000000 
	C348.333344,1.000000 695.666687,1.000000 1043.000000,1.000000 
	C1043.000000,140.000000 1043.000000,279.000000 1043.000000,418.000000 
	C912.166687,418.000000 781.333313,418.000000 650.000000,418.000000 
M192.015152,74.240532 
	C167.818542,74.240532 143.621933,74.240532 119.300125,74.240532 
	C119.300125,98.367958 119.300125,121.614098 119.147881,145.744308 
	C119.124123,147.833786 119.100365,149.923264 118.194954,152.132675 
	C70.008888,154.282684 37.055855,194.705307 45.024418,241.889038 
	C50.923504,276.818909 84.050697,304.307343 119.791084,303.607452 
	C122.260078,303.479614 124.729080,303.351746 128.054276,303.530243 
	C150.281860,303.530243 172.509460,303.530243 194.766083,303.530243 
	C194.766083,280.270355 194.766083,257.654938 194.896637,234.137848 
	C194.948196,231.393692 194.999771,228.649551 195.932907,225.847488 
	C198.745331,225.612259 201.563995,225.434998 204.369232,225.133011 
	C241.518372,221.133652 271.259766,187.230270 270.518463,149.747650 
	C269.684570,107.583572 237.391159,75.479172 194.608292,74.360466 
	C194.039078,74.403969 193.469879,74.447479 192.015152,74.240532 
z"/>
<path fill="#25423F" opacity="1.000000" stroke="none" 
	d="
M195.053940,74.724792 
	C237.391159,75.479172 269.684570,107.583572 270.518463,149.747650 
	C271.259766,187.230270 241.518372,221.133652 204.369232,225.133011 
	C201.563995,225.434998 198.745331,225.612259 195.468918,225.623169 
	C194.960495,225.234985 194.916061,225.071136 194.916748,224.492203 
	C194.944061,222.387863 194.926254,220.698593 194.939728,218.541077 
	C194.998657,170.290146 195.026291,122.507469 195.053940,74.724792 
z"/>
<path fill="#93552C" opacity="1.000000" stroke="none" 
	d="
M118.937439,303.220917 
	C84.050697,304.307343 50.923504,276.818909 45.024418,241.889038 
	C37.055855,194.705307 70.008888,154.282684 119.022873,152.074585 
	C120.883385,152.036942 121.915977,152.057373 122.708023,152.348907 
	C118.235840,153.933762 120.660194,157.502701 119.671265,160.311050 
	C119.254478,161.585419 119.018776,162.562500 119.018829,163.539597 
	C119.021042,209.057205 119.043762,254.574799 119.052887,300.401611 
	C119.040886,301.123688 119.040115,301.536499 119.020447,302.161255 
	C118.968208,302.654877 118.946838,302.937439 118.937439,303.220917 
z"/>
<path fill="#A16A2E" opacity="1.000000" stroke="none" 
	d="
M119.064133,300.092407 
	C119.043762,254.574799 119.021042,209.057205 119.018829,163.539597 
	C119.018776,162.562500 119.254478,161.585419 119.684952,160.724045 
	C123.219719,181.841553 133.033920,199.129745 150.355713,211.429382 
	C163.505753,220.766800 178.094666,226.832123 194.871628,224.907288 
	C194.916061,225.071136 194.960495,225.234985 195.028137,225.652115 
	C194.999771,228.649551 194.948196,231.393692 194.592285,234.886154 
	C192.961761,246.741730 190.007324,257.307007 184.054825,266.910187 
	C173.585266,283.800659 159.189499,295.438660 139.659576,300.244171 
	C135.512421,301.264587 131.352249,302.232056 127.198074,303.223907 
	C124.729080,303.351746 122.260078,303.479614 119.364258,303.414185 
	C118.946838,302.937439 118.968208,302.654877 119.237106,302.032227 
	C119.336487,301.158325 119.200310,300.625366 119.064133,300.092407 
z"/>
<path fill="#5E5F38" opacity="1.000000" stroke="none" 
	d="
M122.948570,152.077805 
	C121.915977,152.057373 120.883385,152.036942 119.463699,152.014618 
	C119.100365,149.923264 119.124123,147.833786 119.453247,145.001541 
	C122.085876,115.650841 136.582199,94.835358 161.918060,82.419708 
	C171.290115,77.827003 182.518753,77.022934 192.900665,74.490982 
	C193.469879,74.447479 194.039078,74.403969 194.831116,74.542633 
	C195.026291,122.507469 194.998657,170.290146 194.677277,218.260315 
	C189.223572,180.991287 160.496475,154.885468 122.948570,152.077805 
z"/>
<path fill="#B58F3B" opacity="1.000000" stroke="none" 
	d="
M192.457916,74.365753 
	C182.518753,77.022934 171.290115,77.827003 161.918060,82.419708 
	C136.582199,94.835358 122.085876,115.650841 119.529373,144.559509 
	C119.300125,121.614098 119.300125,98.367958 119.300125,74.240532 
	C143.621933,74.240532 167.818542,74.240532 192.457916,74.365753 
z"/>
<path fill="#B58E38" opacity="1.000000" stroke="none" 
	d="
M127.626175,303.377075 
	C131.352249,302.232056 135.512421,301.264587 139.659576,300.244171 
	C159.189499,295.438660 173.585266,283.800659 184.054825,266.910187 
	C190.007324,257.307007 192.961761,246.741730 194.527008,235.337006 
	C194.766083,257.654938 194.766083,280.270355 194.766083,303.530243 
	C172.509460,303.530243 150.281860,303.530243 127.626175,303.377075 
z"/>
<path fill="#754E15" opacity="1.000000" stroke="none" 
	d="
M122.708023,152.348907 
	C160.496475,154.885468 189.223572,180.991287 194.645996,218.728577 
	C194.926254,220.698593 194.944061,222.387863 194.916748,224.492203 
	C178.094666,226.832123 163.505753,220.766800 150.355713,211.429382 
	C133.033920,199.129745 123.219719,181.841553 119.976013,160.426773 
	C120.660194,157.502701 118.235840,153.933762 122.708023,152.348907 
z"/>
<path fill="#B58E38" opacity="1.000000" stroke="none" 
	d="
M119.052887,300.401611 
	C119.200310,300.625366 119.336487,301.158325 119.256004,301.820312 
	C119.040115,301.536499 119.040886,301.123688 119.052887,300.401611 
z"/>
</svg>